PathFileType	4	(X/Y/Z)	/Users/itak/Documents/Research/Walk-IL/dataset/trc/00010_00004.trc
DataRate	CameraRate	NumFrames	NumMarkers	Units	OrigDataRate	OrigDataStartFrame	OrigNumFrames
100.000000	100.000000	4	53	mm	100.000000	468	624
Frame#	Time	RPSI			LPSI			L3			STRN			T10			C7			CLAV			RBAK			LBAK			LSHO			LUPA			LAEL			LAOL			LWTS			LWPS			LFRA			LHPS			LHTS			RSHO			RUPA			RAEL			RAOL			RWTS			RWPS			RFRA			RIFD			RHTS			RHPS			RBHD			LFHD			RFHD			LBHD			LHIP			RHIP			RASI			LASI			LKNE			LTHI			LANK			LTIP			LTOE			LMT1			LMT5			LHEE			RKNE			RTHI			RANK			RTIP			RTOE			RMT1			RMT5			RHEE			LIFD			
		X1	Y1	Z1	X2	Y2	Z2	X3	Y3	Z3	X4	Y4	Z4	X5	Y5	Z5	X6	Y6	Z6	X7	Y7	Z7	X8	Y8	Z8	X9	Y9	Z9	X10	Y10	Z10	X11	Y11	Z11	X12	Y12	Z12	X13	Y13	Z13	X14	Y14	Z14	X15	Y15	Z15	X16	Y16	Z16	X17	Y17	Z17	X18	Y18	Z18	X19	Y19	Z19	X20	Y20	Z20	X21	Y21	Z21	X22	Y22	Z22	X23	Y23	Z23	X24	Y24	Z24	X25	Y25	Z25	X26	Y26	Z26	X27	Y27	Z27	X28	Y28	Z28	X29	Y29	Z29	X30	Y30	Z30	X31	Y31	Z31	X32	Y32	Z32	X33	Y33	Z33	X34	Y34	Z34	X35	Y35	Z35	X36	Y36	Z36	X37	Y37	Z37	X38	Y38	Z38	X39	Y39	Z39	X40	Y40	Z40	X41	Y41	Z41	X42	Y42	Z42	X43	Y43	Z43	X44	Y44	Z44	X45	Y45	Z45	X46	Y46	Z46	X47	Y47	Z47	X48	Y48	Z48	X49	Y49	Z49	X50	Y50	Z50	X51	Y51	Z51	X52	Y52	Z52	X53	Y53	Z53	

469	4.68	-869.5966796875	1052.538452148438	-157.6253204345703	-892.261474609375	1047.08056640625	-319.3283996582031	-881.7542724609375	1112.954711914062	-242.6607818603516	-645.8051147460938	1297.63232421875	-270.0874328613281	-892.4307861328125	1261.012939453125	-236.5670166015625	-836.7622680664062	1525.815795898438	-243.8216094970703	-683.8062133789062	1425.399169921875	-266.1041564941406	-881.5079345703125	1387.5244140625	-159.8574066162109	-870.7015991210938	1487.863159179688	-338.5815734863281	-779.9444580078125	1492.737670898438	-428.0173034667969	-836.8616943359375	1374.777954101562	-500.8132629394531	-876.530517578125	1162.936401367188	-529.248046875	-914.5234985351562	1154.922119140625	-430.3468322753906	-833.71630859375	893.9727783203125	-497.6282348632812	-918.994140625	898.61767578125	-524.2765502929688	-887.8978881835938	1047.1015625	-540.2179565429688	-906.9814453125	804.4879760742188	-532.1375122070312	-838.1599731445312	797.4617919921875	-517.4013061523438	-736.031494140625	1502.547485351562	-84.44554138183594	-736.547607421875	1428.129516601562	-11.90673923492432	-739.2176513671875	1157.122436523438	16.10372734069824	-757.6937866210938	1126.617919921875	-78.2203369140625	-568.7697143554688	929.1383666992188	-43.85626602172852	-617.97412109375	901.124267578125	28.55289649963379	-710.915283203125	1083.6201171875	27.17556953430176	-507.604248046875	752.2536010742188	-61.2928581237793	-509.5565185546875	830.1790161132812	-35.90097045898438	-555.6534423828125	814.18896484375	20.67421913146973	-726.67822265625	1706.142700195312	-172.7007598876953	-570.234130859375	1677.7353515625	-312.3692932128906	-558.8171997070312	1676.973754882812	-214.36376953125	-749.1743774414062	1713.651977539062	-315.5224914550781	-806.804443359375	948.8798828125	-439.4486389160156	-751.3038940429688	940.6387939453125	-69.98377990722656	-655.4825439453125	966.7203369140625	-153.0326690673828	-687.5816650390625	993.1710815429688	-385.4085998535156	-624.3260498046875	538.3981323242188	-403.6256713867188	-694.1998901367188	656.7345581054688	-438.8505554199219	-595.3093872070312	47.32728576660156	-434.1690063476562	-635.2657470703125	291.552978515625	-435.4971618652344	-387.3988647460938	76.97145080566406	-350.8065795898438	-445.8490905761719	70.24822235107422	-338.0484313964844	-473.5001831054688	75.01593017578125	-441.23974609375	-666.9595336914062	36.74942398071289	-386.0682373046875	-802.7032470703125	504.9190979003906	-115.112434387207	-751.448974609375	772.8809204101562	-75.05326843261719	-1044.50439453125	61.05884552001953	-153.7648468017578	-858.467041015625	386.1265258789062	-117.091194152832	-814.567626953125	45.99658584594727	-189.6179809570312	-875.0746459960938	53.09927749633789	-220.8021697998047	-898.0555419921875	42.4095458984375	-126.5691223144531	-1099.48388671875	75.70822906494141	-199.4299774169922	-848.3657836914062	705.2911987304688	-489.6236877441406	
470	4.69	-876.123779296875	1052.721801757812	-155.315185546875	-899.0330810546875	1047.40380859375	-316.8940124511719	-888.3763427734375	1113.483032226562	-240.2871398925781	-651.85205078125	1297.702758789062	-268.3818359375	-898.5831298828125	1261.585083007812	-234.0852355957031	-842.1605834960938	1526.257202148438	-241.6349792480469	-689.5715942382812	1425.527587890625	-264.3988037109375	-887.01611328125	1388.098388671875	-157.4432678222656	-876.4935913085938	1488.391967773438	-336.2393493652344	-786.0228271484375	1493.061401367188	-425.9956359863281	-843.6676635742188	1375.230590820312	-498.3843688964844	-884.3864135742188	1163.529418945312	-526.2911376953125	-921.5007934570312	1155.68701171875	-427.0015563964844	-842.7467651367188	894.3086547851562	-495.10791015625	-928.2874755859375	899.4500732421875	-520.8518676757812	-896.480224609375	1047.758056640625	-537.1270751953125	-916.95703125	805.2568359375	-528.8287963867188	-848.1655883789062	797.5816040039062	-514.5420532226562	-741.08544921875	1502.896850585938	-82.65230560302734	-741.3037719726562	1428.598266601562	-10.0054759979248	-742.36962890625	1157.626831054688	18.82245063781738	-761.4141235351562	1126.738037109375	-75.29652404785156	-568.55615234375	932.7122802734375	-43.00641250610352	-616.53759765625	903.553955078125	29.81974983215332	-713.0133666992188	1084.3388671875	29.68381118774414	-503.8364868164062	757.2418823242188	-61.41133117675781	-507.3070068359375	834.9555053710938	-35.82140731811523	-552.514892578125	817.8959350585938	21.18572425842285	-729.2258911132812	1706.377319335938	-171.0345306396484	-573.8670043945312	1675.30810546875	-311.3739624023438	-562.0656127929688	1674.557983398438	-213.4099578857422	-752.2565307617188	1714.021118164062	-313.7951965332031	-814.204345703125	949.2854614257812	-437.147216796875	-757.6824951171875	940.6873779296875	-67.97456359863281	-661.8892211914062	966.9404907226562	-151.1552734375	-694.5471801757812	993.4317626953125	-383.4293823242188	-631.5109252929688	538.8702392578125	-402.7102355957031	-701.6622924804688	657.1272583007812	-437.5761413574219	-597.5619506835938	48.3608283996582	-433.8734130859375	-640.7594604492188	292.345703125	-435.049072265625	-389.9820861816406	82.55338287353516	-351.5702819824219	-448.2560119628906	74.69960021972656	-338.5184631347656	-476.3832397460938	78.56079864501953	-441.6005554199219	-668.74853515625	35.99407577514648	-385.6281127929688	-807.6226806640625	504.8721008300781	-114.5360717773438	-757.1539916992188	772.82080078125	-73.47355651855469	-1044.978393554688	59.22800827026367	-154.1245880126953	-862.3416748046875	385.772705078125	-116.8213729858398	-814.8198852539062	46.01191329956055	-189.7167510986328	-875.3887329101562	52.71347045898438	-221.0623321533203	-898.2033081054688	42.48485946655273	-126.711799621582	-1100.2060546875	73.05039215087891	-199.8713684082031	-859.0550537109375	705.4254760742188	-486.7077941894531	
471	4.7	-882.4389038085938	1052.961669921875	-153.0752410888672	-905.636474609375	1047.821655273438	-314.5248107910156	-894.8001708984375	1114.093872070312	-237.9862213134766	-657.7802124023438	1297.921508789062	-266.7212219238281	-904.6320190429688	1262.230346679688	-231.6942291259766	-847.5237426757812	1526.794921875	-239.5724182128906	-695.27197265625	1425.796997070312	-262.7544860839844	-892.46875	1388.766479492188	-155.1543121337891	-882.1832885742188	1489.022705078125	-334.0169982910156	-791.987060546875	1493.504150390625	-424.0626525878906	-850.3447265625	1375.816040039062	-496.0736999511719	-892.1102294921875	1164.2607421875	-523.4472045898438	-928.3814086914062	1156.595458984375	-423.7909240722656	-851.5171508789062	894.810546875	-492.6114196777344	-937.2774658203125	900.386474609375	-517.4918823242188	-904.882568359375	1048.544067382812	-534.1295166015625	-926.5659790039062	806.1362915039062	-525.5333862304688	-857.7664794921875	797.9634399414062	-511.5596618652344	-746.16259765625	1503.39794921875	-80.9539794921875	-746.106201171875	1429.233154296875	-8.191061019897461	-745.6542358398438	1158.328125	21.47107887268066	-765.2579956054688	1127.058715820312	-72.48036193847656	-568.7550048828125	936.3585815429688	-42.12782669067383	-615.5309448242188	906.1650390625	31.09640312194824	-715.3034057617188	1085.268798828125	32.13558578491211	-500.7804870605469	762.2462158203125	-61.46547698974609	-505.6259155273438	839.7435913085938	-35.70090103149414	-549.9727783203125	821.7197875976562	21.71635055541992	-731.6701049804688	1706.690063476562	-169.464599609375	-577.4596557617188	1672.89013671875	-310.4499206542969	-565.2681884765625	1672.147216796875	-212.5382995605469	-755.2305297851562	1714.478149414062	-312.1665649414062	-821.5432739257812	949.786376953125	-434.8695983886719	-763.8203735351562	940.7718505859375	-66.06893920898438	-668.0989379882812	967.2393188476562	-149.3972015380859	-701.3577880859375	993.8456420898438	-381.5561218261719	-638.57421875	539.3855590820312	-401.7893676757812	-709.0591430664062	657.5737915039062	-436.3736877441406	-600.294189453125	49.44482803344727	-433.5285339355469	-646.2792358398438	293.1937866210938	-434.5627136230469	-393.0540466308594	87.59764099121094	-352.2311401367188	-451.1053161621094	78.82608032226562	-338.9041137695312	-479.6957397460938	81.82506561279297	-441.8729248046875	-670.9969482421875	35.51298141479492	-385.119140625	-812.4266357421875	504.9119567871094	-114.0639038085938	-762.6483764648438	772.8056030273438	-72.02559661865234	-1045.398681640625	57.53596115112305	-154.3957061767578	-866.1156005859375	385.5194702148438	-116.6039962768555	-815.06494140625	46.03328704833984	-189.8177947998047	-875.704345703125	52.36667633056641	-221.3161010742188	-898.3197021484375	42.57559967041016	-126.8352508544922	-1100.835815429688	70.54408264160156	-200.1918487548828	-869.2000732421875	705.8627319335938	-483.8042297363281	
472	4.71	-888.5269165039062	1053.23681640625	-150.8982696533203	-912.08154296875	1048.31591796875	-312.2171630859375	-901.02587890625	1114.761352539062	-235.7513580322266	-663.5844116210938	1298.254150390625	-265.1129760742188	-910.5750732421875	1262.928833007812	-229.3899688720703	-852.8448486328125	1527.405883789062	-237.6345367431641	-700.9016723632812	1426.175537109375	-261.1713562011719	-897.8560791015625	1389.505981445312	-152.9881286621094	-887.7637329101562	1489.728637695312	-331.9132690429688	-797.832763671875	1494.029052734375	-422.2199096679688	-856.8877563476562	1376.497314453125	-493.8865356445312	-899.6956176757812	1165.092163085938	-520.7312622070312	-935.1853637695312	1157.61083984375	-420.7409362792969	-859.993896484375	895.4479370117188	-490.1470642089844	-945.9595336914062	901.3892211914062	-514.2272338867188	-913.0891723632812	1049.420166015625	-531.243896484375	-935.7857055664062	807.0822143554688	-522.2767944335938	-866.9521484375	798.565185546875	-508.4820251464844	-751.248779296875	1504.024047851562	-79.34989166259766	-750.942138671875	1430.009155273438	-6.460948944091797	-749.0855712890625	1159.193115234375	24.0517635345459	-769.2183227539062	1127.551025390625	-69.76421356201172	-569.3651123046875	940.0302124023438	-41.22098541259766	-614.961181640625	908.9085083007812	32.3838005065918	-717.7920532226562	1086.369506835938	34.53350830078125	-498.4313354492188	767.200927734375	-61.4482536315918	-504.497314453125	844.4990234375	-35.53019332885742	-548.024169921875	825.6088256835938	22.27123069763184	-734.0399780273438	1707.0625	-167.9999084472656	-581.0217895507812	1670.480102539062	-309.58935546875	-568.4375	1669.744140625	-211.7401580810547	-758.1091918945312	1714.989501953125	-310.6413269042969	-828.8113403320312	950.3721313476562	-432.6516723632812	-769.7147216796875	940.8699340820312	-64.27141571044922	-674.1152954101562	967.5787353515625	-147.7793731689453	-708.0301513671875	994.38330078125	-379.8091735839844	-645.4298095703125	539.9550170898438	-400.8609313964844	-716.3280029296875	658.0701293945312	-435.2550354003906	-603.6369018554688	50.54337692260742	-433.1350708007812	-651.8276977539062	294.0882263183594	-434.0359802246094	-396.6975402832031	91.87443542480469	-352.7517395019531	-454.5038146972656	82.42516326904297	-339.182373046875	-483.5219116210938	84.65132904052734	-442.0384216308594	-673.8692626953125	35.35862731933594	-384.5494384765625	-817.1989135742188	505.0184631347656	-113.6884918212891	-767.9789428710938	772.8014526367188	-70.69723510742188	-1045.801635742188	55.9422492980957	-154.5998687744141	-869.8641967773438	385.3462219238281	-116.4418792724609	-815.3097534179688	46.06356048583984	-189.9245147705078	-876.030029296875	52.05632400512695	-221.5630187988281	-898.442138671875	42.67683792114258	-126.9564056396484	-1101.393188476562	68.12290191650391	-200.4181060791016	-878.5593872070312	706.7174682617188	-481.0242309570312	
